<svg xmlns="http://www.w3.org/2000/svg" width="1200" height="675" viewBox="0 0 1200 675" role="img" aria-labelledby="title desc">
  <title id="title">Cotton Mission</title>
  <desc id="desc">Farm to fibre to factory to fashion to foreign</desc>
  <defs>
    <linearGradient id="g" x1="0" x2="1" y1="0" y2="1">
      <stop stop-color="#184337" offset="0"/>
      <stop stop-color="#47766d" offset="0.52"/>
      <stop stop-color="#b45a38" offset="1"/>
    </linearGradient>
    <pattern id="grid" width="48" height="48" patternUnits="userSpaceOnUse">
      <path d="M48 0H0v48" fill="none" stroke="#ffffff" stroke-opacity=".12"/>
    </pattern>
  </defs>
  <rect width="1200" height="675" fill="url(#g)"/>
  <rect width="1200" height="675" fill="url(#grid)"/>
  <path d="M760 0h440v170c-112 54-235 72-370 44z" fill="#e0bd55" opacity=".18"/>
  <path d="M0 525h470v150H0z" fill="#ffffff" opacity=".08"/>
  <path d="M85 138c98-48 200-60 306-36s203 19 292-16" fill="none" stroke="#fff" stroke-opacity=".20" stroke-width="18" stroke-linecap="round"/>
  <g fill="#fff"><circle cx="875" cy="250" r="55"/><circle cx="820" cy="315" r="55"/><circle cx="930" cy="315" r="55"/><circle cx="875" cy="360" r="55"/></g><path d="M875 405v90M875 455c-55-10-95-40-122-82M875 455c55-10 95-40 122-82" stroke="#184337" stroke-width="14" stroke-linecap="round"/>
  <g transform="translate(80 140)">
    <rect x="0" y="0" width="92" height="10" fill="#e0bd55"/>
    <text x="0" y="92" font-family="Inter, Segoe UI, Arial, sans-serif" font-size="58" font-weight="900" fill="#fff">Cotton Mission</text>
    <foreignObject x="0" y="128" width="560" height="160">
      <div xmlns="http://www.w3.org/1999/xhtml" style="font-family: Inter, Segoe UI, Arial, sans-serif; color: rgba(255,255,255,.88); font-size: 26px; line-height: 1.35; font-weight: 650;">Farm to fibre to factory to fashion to foreign</div>
    </foreignObject>
  </g>
</svg>