<svg xmlns="http://www.w3.org/2000/svg" width="1200" height="675" viewBox="0 0 1200 675" role="img" aria-labelledby="title desc">
  <title id="title">Defence Tech 2026</title>
  <desc id="desc">AI, hypersonics, quantum and preparedness</desc>
  <defs>
    <linearGradient id="g" x1="0" x2="1" y1="0" y2="1">
      <stop stop-color="#141d2b" offset="0"/>
      <stop stop-color="#27475e" offset="0.52"/>
      <stop stop-color="#a84333" offset="1"/>
    </linearGradient>
    <pattern id="grid" width="48" height="48" patternUnits="userSpaceOnUse">
      <path d="M48 0H0v48" fill="none" stroke="#ffffff" stroke-opacity=".12"/>
    </pattern>
  </defs>
  <rect width="1200" height="675" fill="url(#g)"/>
  <rect width="1200" height="675" fill="url(#grid)"/>
  <path d="M760 0h440v170c-112 54-235 72-370 44z" fill="#dba63d" opacity=".18"/>
  <path d="M0 525h470v150H0z" fill="#ffffff" opacity=".08"/>
  <path d="M85 138c98-48 200-60 306-36s203 19 292-16" fill="none" stroke="#fff" stroke-opacity=".20" stroke-width="18" stroke-linecap="round"/>
  <path d="M900 150l160 70v115c0 95-62 150-160 198-98-48-160-103-160-198V220z" fill="#fff8"/><path d="M900 215v210M812 305h176M845 392l110-172" stroke="#141d2b" stroke-width="15" stroke-linecap="round"/>
  <g transform="translate(80 140)">
    <rect x="0" y="0" width="92" height="10" fill="#dba63d"/>
    <text x="0" y="92" font-family="Inter, Segoe UI, Arial, sans-serif" font-size="58" font-weight="900" fill="#fff">Defence Tech 2026</text>
    <foreignObject x="0" y="128" width="560" height="160">
      <div xmlns="http://www.w3.org/1999/xhtml" style="font-family: Inter, Segoe UI, Arial, sans-serif; color: rgba(255,255,255,.88); font-size: 26px; line-height: 1.35; font-weight: 650;">AI, hypersonics, quantum and preparedness</div>
    </foreignObject>
  </g>
</svg>