<svg xmlns="http://www.w3.org/2000/svg" width="1200" height="675" viewBox="0 0 1200 675" role="img" aria-labelledby="title desc">
  <title id="title">Aviation Credit Buffer</title>
  <desc id="desc">West Asia stress and Indian airline liquidity</desc>
  <defs>
    <linearGradient id="g" x1="0" x2="1" y1="0" y2="1">
      <stop stop-color="#16213e" offset="0"/>
      <stop stop-color="#266b8f" offset="0.52"/>
      <stop stop-color="#b94b42" offset="1"/>
    </linearGradient>
    <pattern id="grid" width="48" height="48" patternUnits="userSpaceOnUse">
      <path d="M48 0H0v48" fill="none" stroke="#ffffff" stroke-opacity=".12"/>
    </pattern>
  </defs>
  <rect width="1200" height="675" fill="url(#g)"/>
  <rect width="1200" height="675" fill="url(#grid)"/>
  <path d="M760 0h440v170c-112 54-235 72-370 44z" fill="#f1b84b" opacity=".18"/>
  <path d="M0 525h470v150H0z" fill="#ffffff" opacity=".08"/>
  <path d="M85 138c98-48 200-60 306-36s203 19 292-16" fill="none" stroke="#fff" stroke-opacity=".20" stroke-width="18" stroke-linecap="round"/>
  <path d="M760 325l330-150-95 150 95 150z" fill="#fff8"/><path d="M995 325H760" stroke="#16213e" stroke-width="18"/><path d="M890 320l-80 115M900 330l-80-110" stroke="#fff" stroke-width="18" stroke-linecap="round"/>
  <g transform="translate(80 140)">
    <rect x="0" y="0" width="92" height="10" fill="#f1b84b"/>
    <text x="0" y="92" font-family="Inter, Segoe UI, Arial, sans-serif" font-size="58" font-weight="900" fill="#fff">Aviation Credit Buffer</text>
    <foreignObject x="0" y="128" width="560" height="160">
      <div xmlns="http://www.w3.org/1999/xhtml" style="font-family: Inter, Segoe UI, Arial, sans-serif; color: rgba(255,255,255,.88); font-size: 26px; line-height: 1.35; font-weight: 650;">West Asia stress and Indian airline liquidity</div>
    </foreignObject>
  </g>
</svg>