<svg xmlns="http://www.w3.org/2000/svg" width="1200" height="675" viewBox="0 0 1200 675" role="img" aria-labelledby="title desc">
  <title id="title">RPL Hyderabad</title>
  <desc id="desc">Rugby Premier League returns in June 2026</desc>
  <defs>
    <linearGradient id="g" x1="0" x2="1" y1="0" y2="1">
      <stop stop-color="#15372c" offset="0"/>
      <stop stop-color="#275f73" offset="0.52"/>
      <stop stop-color="#bf4f31" offset="1"/>
    </linearGradient>
    <pattern id="grid" width="48" height="48" patternUnits="userSpaceOnUse">
      <path d="M48 0H0v48" fill="none" stroke="#ffffff" stroke-opacity=".12"/>
    </pattern>
  </defs>
  <rect width="1200" height="675" fill="url(#g)"/>
  <rect width="1200" height="675" fill="url(#grid)"/>
  <path d="M760 0h440v170c-112 54-235 72-370 44z" fill="#e4b63f" opacity=".18"/>
  <path d="M0 525h470v150H0z" fill="#ffffff" opacity=".08"/>
  <path d="M85 138c98-48 200-60 306-36s203 19 292-16" fill="none" stroke="#fff" stroke-opacity=".20" stroke-width="18" stroke-linecap="round"/>
  <ellipse cx="910" cy="320" rx="170" ry="88" transform="rotate(-18 910 320)" fill="#fff8"/><path d="M790 355c74-52 174-82 295-80M825 285c60 60 135 96 225 104" stroke="#15372c" stroke-width="12" fill="none" stroke-linecap="round"/><path d="M855 320l95 32" stroke="#fff" stroke-width="10" stroke-linecap="round"/>
  <g transform="translate(80 140)">
    <rect x="0" y="0" width="92" height="10" fill="#e4b63f"/>
    <text x="0" y="92" font-family="Inter, Segoe UI, Arial, sans-serif" font-size="58" font-weight="900" fill="#fff">RPL Hyderabad</text>
    <foreignObject x="0" y="128" width="560" height="160">
      <div xmlns="http://www.w3.org/1999/xhtml" style="font-family: Inter, Segoe UI, Arial, sans-serif; color: rgba(255,255,255,.88); font-size: 26px; line-height: 1.35; font-weight: 650;">Rugby Premier League returns in June 2026</div>
    </foreignObject>
  </g>
</svg>